<svg id="Laag_1" data-name="Laag 1" xmlns="http://www.w3.org/2000/svg" viewBox="0 0 251.67 208.85"><defs><style>.cls-1{fill:#063;}.cls-2{fill:#008d36;}.cls-3{fill:#3aaa35;}.cls-4{fill:#95c11f;}</style></defs><path class="cls-1" d="M149.17,22.76,25.34,107.7a2,2,0,0,0,1.13,3.65H274.13a2,2,0,0,0,1.13-3.65L151.43,22.76A2,2,0,0,0,149.17,22.76Z" transform="translate(-24.47 -22.41)"/><path class="cls-1" d="M147.36,42.17,59.71,106.05a5,5,0,0,0-2.05,4V226.26a5,5,0,0,0,5,5H238a5,5,0,0,0,5-5V110.09a5,5,0,0,0-2.06-4L153.25,42.17A5,5,0,0,0,147.36,42.17Z" transform="translate(-24.47 -22.41)"/><path class="cls-2" d="M77.3,206.61V120.09a5,5,0,0,1,2.06-4l68-49.57a5,5,0,0,1,5.89,0l68,49.57a5,5,0,0,1,2.06,4v86.52a5,5,0,0,1-5,5H82.3A5,5,0,0,1,77.3,206.61Z" transform="translate(-24.47 -22.41)"/><path class="cls-3" d="M97,187V130.08A5,5,0,0,1,99,126L147.36,90.8a5,5,0,0,1,5.89,0L201.6,126a5,5,0,0,1,2.05,4V187a5,5,0,0,1-5,5H102A5,5,0,0,1,97,187Z" transform="translate(-24.47 -22.41)"/><path class="cls-4" d="M116.6,167.31V140.07a5,5,0,0,1,2.05-4l28.71-20.92a5,5,0,0,1,5.89,0L182,136a5,5,0,0,1,2.05,4v27.24a5,5,0,0,1-5,5H121.6A5,5,0,0,1,116.6,167.31Z" transform="translate(-24.47 -22.41)"/><rect class="cls-1" x="190.82" y="27.36" width="27.66" height="47.66" rx="2"/></svg>