<svg id="Laag_1" data-name="Laag 1" xmlns="http://www.w3.org/2000/svg" viewBox="0 0 56.01 80.61"><defs><style>.cls-1{fill:#ffffff;}</style></defs><path class="cls-1" d="M75.24,111.7a1,1,0,1,0,1.05,1,1,1,0,0,0-1.05-1m28-72.8c0-2.91-1.39-3.87-3.92-3.87H51.16c-2.53,0-3.92,1-3.92,3.88v72.85c0,2.91,1.39,3.88,3.92,3.88H99.33c2.53,0,3.92-1,3.92-3.88Zm-28-1.64a.86.86,0,1,1-.86.86A.85.85,0,0,1,75.25,37.26Zm0,77.33a1.84,1.84,0,1,1,1.83-1.84A1.84,1.84,0,0,1,75.24,114.59Zm25.93-5a.26.26,0,0,1-.26.26H49.59a.26.26,0,0,1-.26-.26V41.09a.26.26,0,0,1,.26-.26h51.32a.26.26,0,0,1,.26.26Z" transform="translate(-47.24 -35.03)"/></svg>