<svg id="Laag_1" data-name="Laag 1" xmlns="http://www.w3.org/2000/svg" viewBox="0 0 70.2 87.25"><defs><style>.cls-1{fill:#000000;}</style></defs><path class="cls-1" d="M90.39,112.09c11.84,0,19.7-5.53,19.7-19.23V76.93H39.91V92.86c0,13.7,7.86,19.23,19.7,19.23" transform="translate(-39.9 -24.84)"/><path class="cls-1" d="M75,87.36a1.5,1.5,0,1,1,1.49-1.5A1.5,1.5,0,0,1,75,87.36Z" transform="translate(-39.9 -24.84)"/><path class="cls-1" d="M110.05,64.65a13.5,13.5,0,0,1-7,10.71H46.94a13.5,13.5,0,0,1-7-10.71,11.94,11.94,0,0,1,2.7-8.75,13.21,13.21,0,0,1,8-4.12v3.81a7.86,7.86,0,0,0-4.15,4.78C45.58,63,45,64.86,45.19,66.91A6.46,6.46,0,0,0,49.54,72a11.18,11.18,0,0,0,4,.58,24.38,24.38,0,0,0,3.9-.32,71.65,71.65,0,0,0,9.35-1.77c4.48-1.3,6.75-4.67,6.09-8.86a8.22,8.22,0,0,0-5.22-6,18.27,18.27,0,0,0-6.17-.81h-.85V51.52H89.37v3.23h-.85a18.27,18.27,0,0,0-6.17.81,8.22,8.22,0,0,0-5.22,6c-.66,4.19,1.61,7.56,6.09,8.86a71.65,71.65,0,0,0,9.35,1.77,24.54,24.54,0,0,0,3.9.32,11.18,11.18,0,0,0,4-.58,6.46,6.46,0,0,0,4.35-5.07c.22-2-.39-4-1.27-6.54a7.86,7.86,0,0,0-4.15-4.78V51.78a13.21,13.21,0,0,1,8,4.12A11.94,11.94,0,0,1,110.05,64.65Z" transform="translate(-39.9 -24.84)"/><path class="cls-1" d="M52.18,44.66a15.17,15.17,0,0,0,6.88,1.83v12.8a2.48,2.48,0,0,1-2.15,2.25H54.45a2.59,2.59,0,0,1-2.27-2.63V44.66Z" transform="translate(-39.9 -24.84)"/><path class="cls-1" d="M46.23,34.35a8.83,8.83,0,0,1,1.83-6.19A7.78,7.78,0,0,1,54,24.87a12.44,12.44,0,0,1,7.19,2,19.88,19.88,0,0,1,5.39,4.74A7.73,7.73,0,0,0,63.23,33a11.68,11.68,0,0,0-2.91,3.19,13.43,13.43,0,0,0-2.11,5.08,8,8,0,0,0,.38,3.6A14.19,14.19,0,0,1,53,43.31a11.61,11.61,0,0,1-4.1-3.18A10.32,10.32,0,0,1,46.23,34.35Z" transform="translate(-39.9 -24.84)"/><path class="cls-1" d="M55.53,31.89l-3.35-2.47,0,0h0a1.35,1.35,0,0,0-1.9.34l0,.06a1.42,1.42,0,0,0,.26,2l3.46,2.48h0a1.39,1.39,0,0,0,1.94-.31l0-.08A1.42,1.42,0,0,0,55.53,31.89Z" transform="translate(-39.9 -24.84)"/><path class="cls-1" d="M72.69,39.25a6.17,6.17,0,0,1-.22,1.91,6.41,6.41,0,0,1-.31.87,9.06,9.06,0,0,1-1.07,1.86A8.71,8.71,0,0,1,69.18,46a6.52,6.52,0,0,1-4.47,1.28,6.16,6.16,0,0,1-2.57-.59A3.76,3.76,0,0,1,60.33,45a5.41,5.41,0,0,1-.57-3.7,12.07,12.07,0,0,1,2.15-4.79,10.57,10.57,0,0,1,2.21-2.41,5.19,5.19,0,0,1,2.47-1,3.64,3.64,0,0,1,2.06.25,7,7,0,0,1,3.48,3.48A7.37,7.37,0,0,1,72.69,39.25Z" transform="translate(-39.9 -24.84)"/><path class="cls-1" d="M66.79,43.16c-.47.64-.23,1.4.41,1.4a3.85,3.85,0,0,0,2.56-1.72,4.24,4.24,0,0,0,.85-3c-.19-.61-1-.6-1.45,0C68.56,40.72,67.38,42.34,66.79,43.16Z" transform="translate(-39.9 -24.84)"/><path class="cls-1" d="M97.82,44.66V58.91a2.59,2.59,0,0,1-2.27,2.63H93.09a2.48,2.48,0,0,1-2.15-2.25V46.49a15.17,15.17,0,0,0,6.88-1.83Z" transform="translate(-39.9 -24.84)"/><path class="cls-1" d="M101.14,40.13A11.61,11.61,0,0,1,97,43.31a14.19,14.19,0,0,1-5.63,1.56,8,8,0,0,0,.38-3.6,13.43,13.43,0,0,0-2.11-5.08A11.68,11.68,0,0,0,86.77,33a7.73,7.73,0,0,0-3.31-1.38,19.88,19.88,0,0,1,5.39-4.74,12.44,12.44,0,0,1,7.19-2,7.78,7.78,0,0,1,5.9,3.29,8.83,8.83,0,0,1,1.83,6.19A10.32,10.32,0,0,1,101.14,40.13Z" transform="translate(-39.9 -24.84)"/><path class="cls-1" d="M94.09,33.85l0,.08a1.39,1.39,0,0,0,1.94.31h0l3.46-2.48a1.42,1.42,0,0,0,.26-2l0-.06a1.35,1.35,0,0,0-1.9-.34h0l0,0-3.35,2.47A1.42,1.42,0,0,0,94.09,33.85Z" transform="translate(-39.9 -24.84)"/><path class="cls-1" d="M77.87,36.85a7,7,0,0,1,3.48-3.48,3.64,3.64,0,0,1,2.06-.25,5.19,5.19,0,0,1,2.47,1,10.57,10.57,0,0,1,2.21,2.41,12.07,12.07,0,0,1,2.15,4.79,5.41,5.41,0,0,1-.57,3.7,3.76,3.76,0,0,1-1.81,1.6,6.16,6.16,0,0,1-2.57.59A6.52,6.52,0,0,1,80.82,46a8.71,8.71,0,0,1-1.91-2.06A9.06,9.06,0,0,1,77.84,42a6.41,6.41,0,0,1-.31-.87,6.17,6.17,0,0,1-.22-1.91A7.37,7.37,0,0,1,77.87,36.85Z" transform="translate(-39.9 -24.84)"/><path class="cls-1" d="M80.84,39.91c-.46-.64-1.26-.65-1.45,0a4.24,4.24,0,0,0,.85,3,3.85,3.85,0,0,0,2.56,1.72c.64,0,.88-.76.41-1.4C82.62,42.34,81.44,40.72,80.84,39.91Z" transform="translate(-39.9 -24.84)"/></svg>