<svg id="Laag_1" data-name="Laag 1" xmlns="http://www.w3.org/2000/svg" viewBox="0 0 87.29 96.04"><defs><style>.cls-1{fill:#000000;}</style></defs><path class="cls-1" d="M103.94,90.33a1.49,1.49,0,0,1-.54-.11,1.47,1.47,0,0,1-.92-1.85s0-.13.13-.34a47.56,47.56,0,0,0,2.85-22c-.07-.73-.33-1.86-.46-2.52-.41-2.07-1-3.52-.41-6.52.11-.47.21-.94.34-1.38a7.92,7.92,0,0,0-.26-6.12C99.92,39.25,88.31,30.19,79,28.57a46.06,46.06,0,0,0-7.9-.78,21.66,21.66,0,0,0-4.28.38,54.21,54.21,0,0,0-5.65,1.31c-.89.26-1.77.54-2.6.87s-1.65.66-2.43,1l-.3.13-.12,0v0h0l-.08,0c-.2.11-.4.2-.58.31l-.6.31-.29.15-.26.15c-.35.2-.71.39-1,.6l-1,.61a34.61,34.61,0,0,0-3.6,2.64c-.53.45-1,.92-1.51,1.35a18.52,18.52,0,0,0-1.32,1.35,25.37,25.37,0,0,0-2.09,2.55c-.33.41-.6.84-.88,1.26s-.47.74-.69,1.12-.39.75-.56,1.12-.37.74-.56,1.1c-.08.16-.18.33-.26.51a6.18,6.18,0,0,1-.57,1,2.92,2.92,0,0,1-1,.8,2.56,2.56,0,0,1-1.05.23l-.36,0a2.57,2.57,0,0,1-1.76-1,2.65,2.65,0,0,1-.51-1.53c0-.08,0-.16,0-.24a3.66,3.66,0,0,1,.57-1.46c.13-.17.26-.39.45-.62q.39-.62.84-1.23c.07-.11.19-.24.28-.36.59-.84,1.2-1.68,1.86-2.47l.72-.86c.37-.41.75-.87,1.19-1.31l.64-.71.7-.69c.24-.25.47-.5.73-.73l.78-.74c.55-.48,1.11-1,1.74-1.48a34,34,0,0,1,4-2.86c.36-.24.74-.48,1.13-.7s.79-.44,1.21-.66l.29-.18.32-.15c.18-.09.37-.2.58-.29l.61-.3.19-.09.16-.07.33-.14a44.63,44.63,0,0,1,11.31-3.31,32,32,0,0,1,5.59-.46,38,38,0,0,1,7.07.67C90.9,27.09,102.58,37,107.73,48.07a11.06,11.06,0,0,1,.46,8.37c-.11.43-.21.81-.28,1.22a12.3,12.3,0,0,0,.16,5.68c.14.71.28,1.42.39,2.22a47.27,47.27,0,0,1-3.26,23.83A1.4,1.4,0,0,1,103.94,90.33Z" transform="translate(-28.39 -24.1)"/><path class="cls-1" d="M115.58,83.13c-.28,1.44-1.16,2.51-2,2.51l-.19,0-.24,0,0,.13c-.35,1.37-.86,2.75-1.32,4.11a52.09,52.09,0,0,1-6.83,13,43.07,43.07,0,0,1-10.69,10.56,41.3,41.3,0,0,1-14.13,5.79,44.26,44.26,0,0,1-7,.91l-1.7,0H69.8c-1.15,0-2.25-.1-3.34-.23a39.11,39.11,0,0,1-11.92-3.17l-.33-.16-.16-.08-.19-.09-.61-.29a6.28,6.28,0,0,1-.58-.31l-.32-.14-.29-.18c-.42-.21-.82-.43-1.21-.65l-1.13-.68a36.61,36.61,0,0,1-4-2.89c-.63-.47-1.19-1-1.74-1.48l-.78-.74c-.26-.22-.49-.49-.73-.73l-.7-.69-.64-.71c-.44-.43-.82-.88-1.19-1.32-.24-.27-.49-.55-.72-.85-.66-.79-1.27-1.62-1.86-2.46a3.27,3.27,0,0,1-.28-.37q-.45-.62-.84-1.23c-.19-.23-.32-.43-.45-.62a3.68,3.68,0,0,1-.57-1.45c0-.09,0-.17,0-.25a2.67,2.67,0,0,1,.51-1.53,2.6,2.6,0,0,1,1.76-1l.34,0a2.48,2.48,0,0,1,1.07.25,2.75,2.75,0,0,1,1,.78,6.67,6.67,0,0,1,.57,1c.08.19.18.36.26.53.19.34.38.7.56,1.08a9.75,9.75,0,0,0,.56,1.12c.22.39.45.76.69,1.12a15,15,0,0,0,.88,1.26,24.34,24.34,0,0,0,2.09,2.56c.38.46.86.89,1.32,1.35s1,.91,1.51,1.33a30.75,30.75,0,0,0,3.6,2.64l1,.63,1,.59.26.17.29.15.6.29c.18.11.38.21.58.31l.08,0,0,0h0l.12.08.3.13c.78.37,1.58.7,2.43,1a26.39,26.39,0,0,0,2.6.86,34.88,34.88,0,0,0,5.65,1.11c1,.1,2,.18,3,.21.27,0,.54,0,.81,0h.76c.51,0,1,0,1.57,0a40.66,40.66,0,0,0,6.34-.78,37.74,37.74,0,0,0,12.88-5.17,39.49,39.49,0,0,0,9.87-9.65,47.37,47.37,0,0,0,6.47-12.1c0-.15.09-.24.12-.37a49.81,49.81,0,0,0,2.5-22.85c-.11-.82-.24-1.56-.4-2.25a11.9,11.9,0,0,1-.16-5.41c.07-.29.14-.59.19-.88a14.68,14.68,0,0,1,2.92,4.6c2,5.63,1.66,12.34.57,18.5h.15C115.38,80.21,115.9,81.59,115.58,83.13Z" transform="translate(-28.39 -24.1)"/><path class="cls-1" d="M36,56.23a4.12,4.12,0,1,0,4.12,4.12A4.13,4.13,0,0,0,36,56.23Z" transform="translate(-28.39 -24.1)"/><path class="cls-1" d="M43.82,48.84a12.57,12.57,0,0,0-.89-2c-.09.16-.17.33-.25.49l-.08.15-.09.18,0,.09,0,.08a8.52,8.52,0,0,1-.8,1.33,5.44,5.44,0,0,1-1.82,1.48,5,5,0,0,1-2,.44,4.51,4.51,0,0,1-.61,0,4.87,4.87,0,0,1-4.34-4.84v-.48a5.78,5.78,0,0,1,.9-2.42l.05-.07,0-.06.08-.13.37-.52.22-.32a7.22,7.22,0,0,0-1.74.52A7.14,7.14,0,0,0,30.86,44h0s-.44.46-.58.62a7.73,7.73,0,0,0-1.39,2.5,8.44,8.44,0,0,0-.33,1.41,26.86,26.86,0,0,0-.17,3.57V91.82a27,27,0,0,0,.17,3.58,8.69,8.69,0,0,0,.33,1.41,7.73,7.73,0,0,0,1.39,2.5c.14.16.58.62.58.62a7.14,7.14,0,0,0,1.92,1.3,6.71,6.71,0,0,0,1.26.43c0-.08-.12-.16-.16-.23l-.12-.17a5.9,5.9,0,0,1-.9-2.42V98.6a2.09,2.09,0,0,1,0-.25,5,5,0,0,1,1-3,4.77,4.77,0,0,1,3.22-1.86,4.23,4.23,0,0,1,.7-.06,4.9,4.9,0,0,1,3.82,1.87l0,.06,0,.07a9.42,9.42,0,0,1,.75,1.26l.05.11,0,.08c0,.06,0,.11.07.16l.08.15.09.18a13.61,13.61,0,0,0,1-2.29,12.84,12.84,0,0,0,.63-4.37V53.21A12.81,12.81,0,0,0,43.82,48.84ZM39.9,85.11a13.22,13.22,0,0,1-.06,1.79,4.3,4.3,0,0,1-1.08,2.4,3.94,3.94,0,0,1-2.86,1.23A4,4,0,0,1,33,89.31,4.32,4.32,0,0,1,32,86.9a11.14,11.14,0,0,1-.08-1.56V77.46A12.47,12.47,0,0,1,32,75.67,4.26,4.26,0,0,1,33,73.27a4,4,0,0,1,5.73,0,4.29,4.29,0,0,1,1.07,2.4,11.7,11.7,0,0,1,.08,1.59ZM36,66.79a6.44,6.44,0,1,1,6.44-6.44A6.45,6.45,0,0,1,36,66.79Z" transform="translate(-28.39 -24.1)"/><path class="cls-1" d="M37.07,74.86a1.64,1.64,0,0,0-1.17-.52,1.59,1.59,0,0,0-1.18.52A2,2,0,0,0,34.26,76a9.24,9.24,0,0,0-.06,1.42v7.93a8.07,8.07,0,0,0,.06,1.26,2,2,0,0,0,.46,1.13,1.71,1.71,0,0,0,2.35,0,2,2,0,0,0,.47-1.12,10.15,10.15,0,0,0,0-1.47V77.27a10.09,10.09,0,0,0-.05-1.3A2.06,2.06,0,0,0,37.07,74.86Z" transform="translate(-28.39 -24.1)"/><path class="cls-1" d="M101.77,57.3c.12-.48.22-1,.34-1.4.48-1.87.86-3.34-.2-5.65l-.4-.86a4.86,4.86,0,0,0-.32-.6,5.77,5.77,0,0,0-.31-.61,38.28,38.28,0,0,0-2.68-4.07c-.93-1.24-2.09-2.35-3-3.34s-1.8-1.57-2.61-2.32c-.41-.37-.81-.7-1.18-1s-.74-.63-1.07-.89l-1-.71c-.76-.55-1.52-1-2.3-1.53a1.45,1.45,0,1,0-1.6,2.41l.37.25.45.31.31.2a2.79,2.79,0,0,0,.31.2c.21.16.44.33.72.51s.54.45.88.69l1,.79c.34.32.7.64,1.08,1,.74.7,1.79,1.52,2.71,2.44a19.92,19.92,0,0,1,2.42,2.82,35.17,35.17,0,0,1,2.44,3.78,5.42,5.42,0,0,1,.27.54,2.51,2.51,0,0,1,.26.46c.17.37.33.76.47,1.12.31.76.55,1.54.83,2.43.14.44.26.87.48,1.4a6.55,6.55,0,0,0,1.23,2A2.07,2.07,0,0,1,101.77,57.3Z" transform="translate(-28.39 -24.1)"/></svg>