<svg id="Laag_1" data-name="Laag 1" xmlns="http://www.w3.org/2000/svg" viewBox="0 0 48.25 96.15"><defs><style>.cls-1{fill:#ffffff;}</style></defs><path class="cls-1" d="M99.12,35.66c0-6.25-3.63-8.74-8.66-8.74H59.54c-5,0-8.66,2.49-8.66,8.74v78.68c0,6.25,3.63,8.74,8.66,8.74H90.46c5,0,8.66-2.49,8.66-8.74ZM59.54,119.81c-3.83,0-5.39-1.59-5.39-5.47V35.66c0-3.88,1.56-5.47,5.39-5.47h3.24a1.34,1.34,0,0,1,.6.12,1,1,0,0,1,.44.88,2.47,2.47,0,0,0,.19.93,2.37,2.37,0,0,0,.55.78,2.76,2.76,0,0,0,.78.47,3,3,0,0,0,1,.13H83.7a3,3,0,0,0,1-.13,2.71,2.71,0,0,0,.78-.47,2.52,2.52,0,0,0,.55-.78,2.45,2.45,0,0,0,.19-.92,1,1,0,0,1,.44-.89,1.33,1.33,0,0,1,.59-.12h3.25c3.83,0,5.39,1.59,5.39,5.47v78.68c0,3.88-1.56,5.47-5.39,5.47ZM81.07,29.47A1.13,1.13,0,1,1,80,30.6,1.13,1.13,0,0,1,81.07,29.47Zm-8.83,1.69a1.06,1.06,0,0,1-.26,0,.64.64,0,0,1-.24-.1.57.57,0,0,1,0-.9A.64.64,0,0,1,72,30l.26,0h5.52L78,30a.67.67,0,0,1,.23.1.57.57,0,0,1,0,.9.67.67,0,0,1-.23.1,1.14,1.14,0,0,1-.26,0H72.24" transform="translate(-50.88 -26.92)"/></svg>