<?xml version="1.0" encoding="utf-8"?>
<!-- Generator: Adobe Illustrator 24.3.0, SVG Export Plug-In . SVG Version: 6.00 Build 0)  -->
<svg version="1.1" id="Laag_1" xmlns="http://www.w3.org/2000/svg" xmlns:xlink="http://www.w3.org/1999/xlink" x="0px" y="0px"
	 viewBox="0 0 485.4 485.4" style="enable-background:new 0 0 485.4 485.4;" xml:space="preserve">
<style type="text/css">
	.st0{fill:#FFFFFF;stroke:#FFFFFF;stroke-width:6;stroke-miterlimit:10;}
	.st1{opacity:0.97;fill:url(#SVGID_1_);enable-background:new    ;}
</style>
<path class="st0" d="M353.6,248.3v184.9c0,21.9-17,39.6-37.9,39.6H50.1c-20.9,0-37.9-17.8-37.9-39.6V155.4c0-21.9,17-39.7,37.9-39.7
	h174.2c1-3.2,2-6.4,3.2-9.6H40.9C20,106.2,3,124,3,145.9v296.9c0,21.9,17,39.7,37.9,39.7h283.9c20.9,0,37.9-17.8,37.9-39.7V246
	C359.7,246.9,356.7,247.6,353.6,248.3z"/>
<linearGradient id="SVGID_1_" gradientUnits="userSpaceOnUse" x1="383.151" y1="382.9088" x2="679.161" y2="382.9088" gradientTransform="matrix(0.9 -0.12 3.000000e-02 0.87 -134.1779 -150.9284)">
	<stop  offset="0" style="stop-color:#95C11F"/>
	<stop  offset="3.000000e-02" style="stop-color:#77B926"/>
	<stop  offset="7.000000e-02" style="stop-color:#5CB32D"/>
	<stop  offset="0.1" style="stop-color:#49AE31"/>
	<stop  offset="0.14" style="stop-color:#3EAB34"/>
	<stop  offset="0.18" style="stop-color:#3AAA35"/>
	<stop  offset="0.52" style="stop-color:#008D36"/>
	<stop  offset="0.89" style="stop-color:#006633"/>
	<stop  offset="1" style="stop-color:#006633"/>
</linearGradient>
<path class="st1" d="M225.5,227.7c-5.5-8.4-2-126.6,69.6-187.6S484.9,6.7,484.9,6.7s2,126.6-69.6,187.6S230.9,236.2,225.5,227.7z"/>
</svg>
