<?xml version="1.0" encoding="utf-8"?>
<!-- Generator: Adobe Illustrator 24.3.0, SVG Export Plug-In . SVG Version: 6.00 Build 0)  -->
<svg version="1.1" id="Laag_2" xmlns="http://www.w3.org/2000/svg" xmlns:xlink="http://www.w3.org/1999/xlink" x="0px" y="0px"
	 viewBox="0 0 477.9 477.9" style="enable-background:new 0 0 477.9 477.9;" xml:space="preserve">
<style type="text/css">
	.st0{fill:#101010;}
	.st1{fill:#202020;}
</style>
<circle class="st0" cx="238.9" cy="238.9" r="186.5"/>
<g id="Capa_1">
	<g>
		<g>
			<path class="st1" d="M337.1,140.2c-1.5-1.4-3.6-2-5.6-1.8l-129.3,14.4c-3.6,0.4-6.4,3.5-6.4,7.1v128c-6.5-3.9-14-5.9-21.5-5.9
				c-19.8,0-35.9,12.9-35.9,28.7s16.1,28.7,35.9,28.7s35.9-12.9,35.9-28.7V202.3l114.9-12.8v84c-6.5-3.9-14-5.9-21.5-5.9
				c-19.8,0-35.9,12.9-35.9,28.7s16.1,28.7,35.9,28.7s35.9-12.9,35.9-28.7V145.6C339.5,143.5,338.6,141.6,337.1,140.2z"/>
		</g>
	</g>
</g>
</svg>
