<?xml version="1.0" encoding="utf-8"?>
<!-- Generator: Adobe Illustrator 24.3.0, SVG Export Plug-In . SVG Version: 6.00 Build 0)  -->
<svg version="1.1" id="Capa_1" xmlns="http://www.w3.org/2000/svg" xmlns:xlink="http://www.w3.org/1999/xlink" x="0px" y="0px"
	 viewBox="0 0 519.5 519.5" style="enable-background:new 0 0 519.5 519.5;" xml:space="preserve">
<style type="text/css">
	.st0{fill:#0B8E36;}
</style>
<g>
	<g>
		<path class="st0" d="M193.4,0H118c-16.9,0-30.6,13.7-30.6,30.6v458.3c0,16.9,13.7,30.6,30.6,30.6h75.5c16.9,0,30.6-13.7,30.6-30.6
			V30.6C224,13.7,210.3,0,193.4,0z"/>
		<path class="st0" d="M401.5,0H326c-16.9,0-30.6,13.7-30.6,30.6v458.3c0,16.9,13.7,30.6,30.6,30.6h75.5c16.9,0,30.6-13.7,30.6-30.6
			V30.6C432.1,13.7,418.4,0,401.5,0z"/>
	</g>
</g>
</svg>
