<?xml version="1.0" encoding="utf-8"?>
<!-- Generator: Adobe Illustrator 24.3.0, SVG Export Plug-In . SVG Version: 6.00 Build 0)  -->
<svg version="1.1" id="e4e42fbc-60f0-40a6-9c31-8cbde6ff8eeb"
	 xmlns="http://www.w3.org/2000/svg" xmlns:xlink="http://www.w3.org/1999/xlink" x="0px" y="0px" viewBox="0 0 1157.6 710"
	 style="enable-background:new 0 0 1157.6 710;" xml:space="preserve">
<style type="text/css">
	.st0{opacity:0.1;}
	.st1{fill:#282828;}
	.st2{fill:#FFB8B8;}
	.st3{fill:#0B8E36;}
	.st4{fill:#161616;}
	.st5{fill:#FFBC00;}
	.st6{fill:#F2F2F2;}
	.st7{fill:#6C63FF;}
	.st8{fill:#3F3D56;}
	.st9{fill:#5B5B5B;}
	.st10{fill:#CCCCCC;}
	.st11{fill:#076633;}
</style>
<ellipse transform="matrix(0.9559 -0.2936 0.2936 0.9559 -95.1533 189.8058)" class="st0" cx="584.6" cy="411.8" rx="552" ry="359.3"/>
<path class="st1" d="M916.9,35.8L916.9,35.8c-52.1,0-94.4,46.9-94.4,104.7V214h22.6l13.1-27.2l-3.3,27.2h145.3l11.9-24.8l-3,24.8
	h16.4v-57.7C1025.5,89.8,976.9,35.8,916.9,35.8z"/>
<path class="st2" d="M871.3,167.9c0,0,29.5,68.7-9.8,82.5L900.8,380l66.8-3.9l17.7-43.2l-3.9-64.8l-5.9-43.2c0,0-41.2,9.8-37.3-62.8
	L871.3,167.9z"/>
<path class="st2" d="M855.6,248.4c0,0-64.8-5.9-58.9,41.2s11.8,56.9,11.8,56.9l5.9,70.7L779,438.9h-33.4c0,0-102.1,23.6-51.1,49.1
	s68.7-19.6,68.7-19.6s94.3,0,100.1-15.7S855.6,248.4,855.6,248.4z"/>
<path class="st2" d="M981.3,228.8c0,0,60.9-21.6,64.8,25.5s3.9,51.1,3.9,51.1l11.8,66.8c0,0,23.6,58.9,23.6,76.6
	s17.7,72.7,17.7,72.7s23.6,76.6-2,74.6s-29.5-82.5-29.5-82.5l-53-106l-15.7-64.8L981.3,228.8z"/>
<path class="st3" d="M865.4,240.5h-15.7l-2,82.5c0,0-25.5,35.3,5.9,66.8l7.9,51.1l143.3-5.9l9.8-53c0,0,19.6-43.2-7.9-82.5
	l-25.5-80.5h-13.7c0,0,31.8,117.4-35.3,119.8C877.2,340.7,865.4,240.5,865.4,240.5z"/>
<path class="st4" d="M935.6,708.6c0.3-25,0.5-40,0.5-40s-1.5,15-4,40H777.9c40.8-128.4,78.1-233.9,79.6-238.2c0,0,0-0.1,0-0.1
	l4.8-15.9v0l2-6.7v0l2.1-7l2.9-9.6l127.6-3.9l3.6,8l12.1,27.3c1.1,0.3,2.1,0.8,3,1.4c21.8,14.3,49.1,119.1,74,244.8L935.6,708.6z"/>
<path class="st4" d="M1010.7,411.4l-155.1,5.9c0,0-7.1,53,0,53c2,0,163,13.7,161-9.8S1010.7,411.4,1010.7,411.4z"/>
<circle class="st2" cx="901.7" cy="135.2" r="55.2"/>
<path class="st1" d="M943.7,64.7c-9.5-12.2-23.5-19.9-39.1-19.9h-1.9c-35.7,0-64.7,32.3-64.7,72.2v0h12l1.9-14.7l2.8,14.7h71
	l5.9-12.4l-1.5,12.4h14c6.5,32.4-2.8,64.7-28.1,97.1H940l11.9-24.9l-3,24.9h45.4l8.9-57.3C1003.2,113.9,978.2,77.5,943.7,64.7z"/>
<circle class="st1" cx="956.7" cy="35.3" r="35.3"/>
<circle class="st5" cx="647.9" cy="317.3" r="48.2"/>
<path class="st6" d="M302.5,279.6c0,2.8-1.5,5.4-3.8,7l-0.3,0.2H155.7l0.6-1.7c0.1-0.3,10.5-30.6,56.8-24.8
	c4.4-1.5,46.9-15.4,72.4,0.2C296.8,267.4,302.5,273.8,302.5,279.6z"/>
<path class="st7" d="M530.5,526.3c14.4,0.3,25.8,10.7,25.8,10.7s-11.9,9.9-26.2,9.6s-25.8-10.7-25.8-10.7S516.1,526,530.5,526.3z"/>
<path class="st7" d="M458.2,477.2c13,6.2,27.9,2,27.9,2s-6.2-14.2-19.1-20.3s-27.9-2-27.9-2S445.3,471.1,458.2,477.2z"/>
<path class="st8" d="M459.6,471.1c14.3-1.3,26.8,7.8,26.8,7.8s-10.7,11.2-25,12.5s-26.8-7.8-26.8-7.8S445.2,472.4,459.6,471.1z"/>
<path class="st8" d="M512,473.6c-1.4,14.3,7.6,26.9,7.6,26.9s11.2-10.6,12.6-24.9s-7.6-26.9-7.6-26.9S513.4,459.3,512,473.6z"/>
<path class="st8" d="M579.4,561.3c-7.5,12.3-4.9,27.5-4.9,27.5s14.8-4.6,22.3-16.9s4.9-27.5,4.9-27.5S586.9,549.1,579.4,561.3z"/>
<path class="st8" d="M557.6,694.5l1.1-0.7c-3.9-5.6-6-12.2-6-19c0-9.9,4.9-19.1,9.6-28c0.9-1.7,1.7-3.3,2.6-4.9
	c3.5-6.7,6.3-13.8,8.4-21.1c7.3-27.2,0.1-59.3-19.3-85.9c-15.4-21.1-38.3-39.5-70.1-56.3l-0.6,1.2c31.6,16.7,54.4,35,69.7,56
	c19.2,26.2,26.3,57.9,19.1,84.8c-2,7.2-4.8,14.2-8.3,20.8c-0.8,1.6-1.7,3.3-2.6,4.9c-4.8,9-9.8,18.4-9.8,28.6
	C551.4,681.9,553.6,688.7,557.6,694.5z"/>
<circle class="st8" cx="421.2" cy="467.8" r="12.5"/>
<polygon class="st9" points="737,709.4 46.6,709.4 58.3,694.7 229.2,479.7 237.1,469.8 307.7,380.9 391.8,275.1 500.1,411.3 "/>
<path class="st6" d="M505.4,413.7c-4.4,2.6-9.1,4.9-13.9,6.9c-24.5,9.7-51.7,10-76.3,0.8c-29.1-11.1-53.4-35-84.2-39.5
	c-9.4-1.4-19-0.8-28.5-0.2l88.7-111.6L505.4,413.7z"/>
<path class="st6" d="M538.2,270.4c2.4,7.3,0.8,15.2-1.1,22.6s-4.2,15-3.2,22.5c2.1,16.4,18.2,26.9,33,34s31.6,14.6,38.2,29.7
	c3.6,8.4,3.5,17.8,4.9,26.9c3.1,19,13.2,36.2,28.4,48.2c-12.6-0.3-24-8-32.9-16.9s-16.4-19.4-26-27.6c-13-11-29.2-17.4-44.4-25
	s-30.4-17.5-38.3-32.6c-8.1-15.4-7.2-34.3-1.5-50.8c4.2-12.2,11.9-31.2,21.8-40C524.8,254.6,535.2,261.2,538.2,270.4z"/>
<rect x="477" y="613" class="st6" width="454.8" height="96.4"/>
<polygon class="st1" points="462.5,623.5 512,519.9 907.4,519.9 944.4,623.5 "/>
<rect x="586" y="526.5" class="st6" width="183.5" height="60.7"/>
<polygon class="st1" points="597.8,477 568.8,537.7 786.6,537.7 769.4,477 "/>
<rect x="602.1" y="632.1" class="st10" width="144.9" height="77.2"/>
<rect x="494.9" y="634.7" class="st10" width="77.2" height="74.6"/>
<rect x="772.1" y="639.4" class="st1" width="39.9" height="70"/>
<rect x="855.3" y="643.3" class="st3" width="19.5" height="18.2"/>
<rect x="881.3" y="643.3" class="st3" width="19.5" height="18.2"/>
<rect x="855.3" y="668.1" class="st3" width="19.5" height="18.8"/>
<rect x="881.3" y="668.1" class="st3" width="19.5" height="18.8"/>
<rect x="602.8" y="543.1" class="st8" width="15.2" height="14.2"/>
<rect x="623.2" y="543.1" class="st8" width="15.2" height="14.2"/>
<rect x="602.8" y="562.5" class="st8" width="15.2" height="14.7"/>
<rect x="623.2" y="562.5" class="st8" width="15.2" height="14.7"/>
<rect x="717" y="543.1" class="st8" width="15.2" height="14.2"/>
<rect x="737.4" y="543.1" class="st8" width="15.2" height="14.2"/>
<rect x="717" y="562.5" class="st8" width="15.2" height="14.7"/>
<rect x="737.4" y="562.5" class="st8" width="15.2" height="14.7"/>
<rect x="660.2" y="543.1" class="st8" width="15.2" height="14.2"/>
<rect x="680.6" y="543.1" class="st8" width="15.2" height="14.2"/>
<rect x="660.2" y="562.5" class="st8" width="15.2" height="14.7"/>
<rect x="680.6" y="562.5" class="st8" width="15.2" height="14.7"/>
<rect x="781" y="646.5" class="st6" width="9.6" height="8.9"/>
<rect x="793.8" y="646.5" class="st6" width="9.6" height="8.9"/>
<rect x="781" y="658.6" class="st6" width="9.6" height="9.3"/>
<rect x="793.8" y="658.6" class="st6" width="9.6" height="9.3"/>
<circle class="st6" cx="806.7" cy="679.3" r="2.6"/>
<polygon class="st6" points="647.6,461.2 625.8,461.2 625.8,466.4 630.2,466.4 630.2,481.6 643.2,481.6 643.2,466.4 647.6,466.4 "/>
<path class="st3" d="M603,686.9c-3.8,13.9-16.6,22.5-16.6,22.5s-6.8-13.9-3-27.8s16.6-22.5,16.6-22.5S606.7,673,603,686.9z"/>
<path class="st3" d="M568.8,686.9c3.8,13.9,16.6,22.5,16.6,22.5s6.8-13.9,3-27.8s-16.6-22.5-16.6-22.5S565.1,673,568.8,686.9z"/>
<path class="st11" d="M574.3,683.9c10.3,10,11.6,25.4,11.6,25.4s-15.4-0.8-25.7-10.9S548.6,673,548.6,673S564,673.9,574.3,683.9z"/>
<path class="st11" d="M597.4,683.9c-10.3,10-11.6,25.4-11.6,25.4s15.4-0.8,25.7-10.9s11.6-25.4,11.6-25.4S607.7,673.9,597.4,683.9z"
	/>
<rect y="708.7" class="st8" width="1157.6" height="1.3"/>
<path class="st6" d="M748.2,333.2c0,2.8-1.5,5.4-3.8,7l-0.3,0.2H601.4l0.6-1.7c0.1-0.3,10.5-30.6,56.8-24.8
	c4.4-1.5,46.9-15.4,72.4,0.2C742.5,321,748.2,327.4,748.2,333.2z"/>
<path class="st6" d="M308.9,501c0,2.8-1.5,5.4-3.8,7l-0.3,0.2H162l0.6-1.7c0.1-0.3,10.5-30.6,56.8-24.8c4.4-1.5,46.9-15.4,72.4,0.2
	C303.1,488.7,308.9,495.2,308.9,501z"/>
</svg>
